<svg id="Layer_1" enable-background="new 0 0 511.396 511.396" height="512" viewBox="0 0 511.396 511.396" width="512" xmlns="http://www.w3.org/2000/svg"><g><g><path d="m255.698 0-21.334 234.667 21.334 276.729 221.553-157.314v-354.082z" fill="#fd7cb7"/><path d="m34.144 0v354.082l221.554 157.314v-511.396z" fill="#fd93ef"/></g><path d="m157.03 277.993h-30v-143.783l28.291.006 52.1 82.915v-83.13h30v142.238h-28.29l-52.101-82.916z" fill="#fffbf5"/><path d="m327.695 277.993c-39.699 0-71.997-32.298-71.997-71.997s32.298-71.996 71.997-71.996 71.996 32.297 71.996 71.996c0 39.7-32.297 71.997-71.996 71.997zm0-113.992c-23.157 0-41.997 18.84-41.997 41.996 0 23.157 18.84 41.997 41.997 41.997 23.156 0 41.996-18.84 41.996-41.997s-18.84-41.996-41.996-41.996z" fill="#f7f0eb"/></g></svg>