<svg viewBox="-15 0 512 512" xmlns="http://www.w3.org/2000/svg"><path d="m367.351562 512h-297.535156c-38.558594 0-69.816406-31.257812-69.816406-69.816406v-310.128906c0-38.558594 31.257812-69.816407 69.816406-69.816407h284.59375c45.707032 0 82.761719 37.054688 82.761719 82.761719v297.183594c0 38.558594-31.261719 69.816406-69.820313 69.816406zm0 0" fill="#5ddcf9"/><path d="m378.011719 65.683594c2.234375 7.488281 3.449219 15.414062 3.449219 23.628906v.292969c0 202.558593-164.445313 366.765625-367.300782 366.765625-4.425781 0-8.75-.429688-12.945312-1.214844 6.074218 32.355469 34.488281 56.84375 68.652344 56.84375h297.433593c38.589844 0 69.871094-31.234375 69.871094-69.765625v-297.296875c0-37.460938-24.953125-69.085938-59.160156-79.253906zm0 0" fill="#43c5ff"/><path d="m482.25 115.71875c0-63.910156-51.886719-115.71875-115.890625-115.71875s-115.886719 51.808594-115.886719 115.71875 51.882813 115.722656 115.886719 115.722656 115.890625-51.8125 115.890625-115.722656zm0 0" fill="#fc476e"/><path d="m432.492188 20.6875c11.316406 17.871094 17.871093 39.046875 17.871093 61.753906 0 63.910156-51.886719 115.71875-115.890625 115.71875-24.582031 0-47.375-7.648437-66.128906-20.6875 20.53125 32.429688 56.753906 53.964844 98.015625 53.964844 64.003906 0 115.890625-51.808594 115.890625-115.71875 0-39.359375-19.6875-74.125-49.757812-95.03125zm0 0" fill="#cc2b5a"/><g fill="#e3faff"><path d="m366.359375 171.921875c-4.46875 0-8.089844-3.617187-8.089844-8.078125v-77.921875l-3.019531 2.75c-3.300781 3.007813-8.417969 2.769531-11.429688-.523437-3.011718-3.300782-2.773437-8.40625.527344-11.414063l16.5625-15.078125c2.367188-2.15625 5.785156-2.714844 8.71875-1.421875 2.929688 1.292969 4.820313 4.191406 4.820313 7.390625v96.21875c0 4.460938-3.621094 8.078125-8.089844 8.078125zm0 0"/><path d="m71.40625 426.363281c0-.476562 0-.957031.160156-1.433593l31.757813-103.257813c1.273437-3.824219 5.902343-5.734375 10.691406-5.734375 4.785156 0 9.574219 1.910156 10.851563 5.734375l31.59375 103.257813c.160156.476562.320312.957031.320312 1.433593 0 3.984375-5.902344 7.011719-10.691406 7.011719-2.710938 0-4.945313-.953125-5.746094-3.503906l-6.539062-22.628906h-39.417969l-6.542969 22.628906c-.796875 2.550781-3.03125 3.503906-5.902344 3.503906-4.628906 0-10.535156-2.867188-10.535156-7.011719zm58.566406-32.664062-15.957031-54.65625-15.957031 54.65625zm0 0"/><path d="m169.390625 322.3125c0-2.871094 2.550781-5.417969 6.542969-5.417969h31.117187c19.628907 0 34.945313 9.402344 34.945313 35.054688v1.277343c0 25.492188-15.796875 35.214844-35.902344 35.214844h-19.789062v39.359375c0 3.664063-4.148438 5.574219-8.457032 5.574219-4.148437 0-8.457031-1.910156-8.457031-5.574219zm16.914063 9.558594v43.183594h19.789062c11.808594 0 18.988281-6.691407 18.988281-20.714844v-1.910156c0-14.023438-7.183593-20.558594-18.988281-20.558594zm0 0"/><path d="m256.359375 322.3125c0-2.871094 2.554687-5.417969 6.542969-5.417969h31.117187c19.628907 0 34.949219 9.402344 34.949219 35.054688v1.277343c0 25.492188-15.800781 35.214844-35.90625 35.214844h-19.789062v39.359375c0 3.664063-4.148438 5.574219-8.457032 5.574219-4.148437 0-8.457031-1.910156-8.457031-5.574219zm16.914063 9.558594v43.183594h19.789062c11.808594 0 18.988281-6.691407 18.988281-20.714844v-1.910156c0-14.023438-7.179687-20.558594-18.988281-20.558594zm0 0"/></g></svg>