<svg id="Capa_1" enable-background="new 0 0 512 512" height="512" viewBox="0 0 512 512" width="512" xmlns="http://www.w3.org/2000/svg"><g><path d="m512 216.095-172.04 171.8-21.18-21.23 42.63-42.57h-124.99c-58.49 0-111.18 13.87-148.37 39.05-37.98 25.73-58.07 61.88-58.07 104.56h-29.98v-100.48c0-68.61 26.7-133.12 75.19-181.63 48.27-48.31 112.4-75.01 180.65-75.23h107.84l-44.9-44.84 21.18-21.23z" fill="#00c2f3"/><path d="m512 216.095-172.04 171.8-21.18-21.23 42.63-42.57h-124.99c-58.49 0-111.18 13.87-148.37 39.05-37.98 25.73-58.07 61.88-58.07 104.56h-14.76c1.32-66.65 27.88-129.11 75.13-176.38 48.27-48.31 112.4-75.01 180.65-75.23z" fill="#1e90ff"/></g></svg>