<svg height="512" viewBox="0 0 256 256" width="512" xmlns="http://www.w3.org/2000/svg"><path d="m204.633 103.156a2.5 2.5 0 0 1 -2.5-2.5v-25.928h-62.844a2.5 2.5 0 0 1 0-5h65.344a2.5 2.5 0 0 1 2.5 2.5v28.428a2.5 2.5 0 0 1 -2.5 2.5z" fill="#ebe7f2"/><path d="m204.633 171.228h-153.265a2.5 2.5 0 0 1 -2.5-2.5v-96.5a2.5 2.5 0 0 1 2.5-2.5h66.132a2.5 2.5 0 0 1 0 5h-63.632v91.5h148.265v-31.476a2.5 2.5 0 0 1 5 0v33.976a2.5 2.5 0 0 1 -2.5 2.5z" fill="#ebe7f2"/><path d="m149.359 193.917h-42.719a2.5 2.5 0 0 1 0-5h42.719a2.5 2.5 0 0 1 0 5z" fill="#ebe7f2"/><path d="m139.289 81.214a2.5 2.5 0 0 1 -2.5-2.5v-24.089a2.5 2.5 0 0 1 2.5-2.5h16.318l-27.213-27.213-27.212 27.213h16.318a2.5 2.5 0 0 1 2.5 2.5v24.089a2.5 2.5 0 0 1 -5 0v-21.589h-19.854a2.5 2.5 0 0 1 -1.768-4.268l33.248-33.248a2.5 2.5 0 0 1 3.536 0l33.248 33.248a2.5 2.5 0 0 1 -1.767 4.268h-19.854v21.589a2.5 2.5 0 0 1 -2.5 2.5z" fill="#65c1d6"/><path d="m150.181 141.861h-10.733a2.5 2.5 0 0 1 -2.5-2.5v-7.584a2.5 2.5 0 0 1 2.5-2.5h10.733a2.5 2.5 0 0 1 2.5 2.5v7.584a2.5 2.5 0 0 1 -2.5 2.5zm-8.233-5h5.733v-2.584h-5.733z" fill="#ebe7f2"/><path d="m237.1 137.252h-34.1a2.5 2.5 0 0 1 -2.5-2.5v-34.1a2.5 2.5 0 0 1 2.5-2.5h34.1a2.5 2.5 0 0 1 2.5 2.5v34.1a2.5 2.5 0 0 1 -2.5 2.5zm-31.6-5h29.1v-29.1h-29.1z" fill="#65c1d6"/><g fill="#846f75"><path d="m217.553 144.752v23.976a2.5 2.5 0 0 0 5 0v-23.976a2.5 2.5 0 0 0 -5 0z"/><path d="m171.643 57.105h43.41a2.5 2.5 0 0 1 2.5 2.5v31.051a2.5 2.5 0 0 0 5 0v-31.051a7.509 7.509 0 0 0 -7.5-7.5h-43.41a2.5 2.5 0 0 0 0 5z"/><path d="m35.947 171.228a2.5 2.5 0 0 0 2.5-2.5v-109.123a2.5 2.5 0 0 1 2.5-2.5h44.2a2.5 2.5 0 0 0 0-5h-44.2a7.509 7.509 0 0 0 -7.5 7.5v109.123a2.5 2.5 0 0 0 2.5 2.5z"/><path d="m231.5 179.605h-207a7.509 7.509 0 0 0 -7.5 7.5v9.29a7.509 7.509 0 0 0 7.5 7.5h207a7.509 7.509 0 0 0 7.5-7.5v-9.29a7.509 7.509 0 0 0 -7.5-7.5zm2.5 16.795a2.5 2.5 0 0 1 -2.5 2.5h-207a2.5 2.5 0 0 1 -2.5-2.5v-9.29a2.5 2.5 0 0 1 2.5-2.5h207a2.5 2.5 0 0 1 2.5 2.5z"/><path d="m85.807 116.526a2.5 2.5 0 0 0 3.245-1.4l5.83-14.722v48.135a2.5 2.5 0 0 0 2.5 2.5h61.236a2.5 2.5 0 0 0 2.5-2.5v-48.139l5.83 14.72a2.5 2.5 0 0 0 4.649-1.842l-10.655-26.9a2.5 2.5 0 0 0 -2.324-1.579h-61.236a2.5 2.5 0 0 0 -2.324 1.579l-10.658 26.903a2.5 2.5 0 0 0 1.407 3.245zm14.075 29.51v-45.768l5.953 14.864a2.5 2.5 0 0 0 2.321 1.57h39.688a2.5 2.5 0 0 0 2.321-1.57l5.953-14.865v45.769zm1.194-56.236h53.847l-8.771 21.9h-36.3z"/><path d="m214.092 116.246a2.5 2.5 0 1 0 -3.535 3.535l5.712 5.711a2.5 2.5 0 0 0 3.535 0l9.833-9.833a2.5 2.5 0 1 0 -3.535-3.535l-8.066 8.065z"/></g></svg>