<svg id="bold" enable-background="new 0 0 32 32" height="512" viewBox="0 0 32 32" width="512" xmlns="http://www.w3.org/2000/svg"><path d="m26 32h-20c-3.314 0-6-2.686-6-6v-20c0-3.314 2.686-6 6-6h20c3.314 0 6 2.686 6 6v20c0 3.314-2.686 6-6 6z" fill="#f5e6fe"/><g fill="#be63f9"><path d="m15.333 22.063-7.333-3.361v1.567c0 .133.079.253.201.306l7.133 3.101v-1.613z"/><path d="m16.667 22.063v1.613l7.133-3.101c.121-.054.2-.174.2-.307v-1.567z"/><path d="m19.721 15.64-2.424 2.424c-.347.347-.807.538-1.297.538s-.95-.191-1.296-.537l-2.424-2.424-4.28 1.961 8 3.667 8-3.667z"/></g><path d="m16 17.268c-.128 0-.256-.049-.354-.146l-3.5-3.5c-.314-.314-.091-.854.354-.854h1.833v-4c0-.46.374-.833.833-.833h1.667c.46 0 .833.374.833.833v4h1.834c.444 0 .668.54.354.854l-3.5 3.5c-.098.098-.226.146-.354.146z" fill="#d9a4fc"/></svg>