<svg id="bold" enable-background="new 0 0 32 32" height="512" viewBox="0 0 32 32" width="512" xmlns="http://www.w3.org/2000/svg"><path d="m26 32h-20c-3.314 0-6-2.686-6-6v-20c0-3.314 2.686-6 6-6h20c3.314 0 6 2.686 6 6v20c0 3.314-2.686 6-6 6z" fill="#f5e6fe"/><g fill="#be63f9"><path d="m14.667 8 6.666 2.667-6.666 2.666-6.667-2.666z"/><path d="m14 14.503-6-2.4v6.564c0 .14.087.264.218.313l5.782 2.129z"/><path d="m19.667 14c.58 0 1.139.088 1.667.251v-2.148l-6 2.4v1.52c1.04-1.235 2.595-2.023 4.333-2.023z"/></g><path d="m19.667 15.333c-2.389 0-4.333 1.944-4.333 4.333s1.943 4.334 4.333 4.334 4.333-1.944 4.333-4.333-1.944-4.334-4.333-4.334zm.666 6.667c0 .368-.298.667-.667.667s-.666-.299-.666-.667v-2.333c0-.368.298-.667.667-.667s.667.299.667.667v2.333zm-.666-4c-.369 0-.667-.298-.667-.667s.298-.667.667-.667.667.298.667.667-.299.667-.667.667z" fill="#d9a4fc"/></svg>